<svg aria-hidden="true" style="width:0;height:0;position:absolute;overflow:hidden" xmlns="http://www.w3.org/2000/svg"><defs><symbol id="ethernet-classic" viewBox="0 0 43 32"><path d="M10.667 2.667q0-1.167.75-1.917T13.334 0h16q1.167 0 1.917.75t.75 1.917v2.667h2.667q1.167 0 1.917.75t.75 1.917v2.667h2.667q1.167 0 1.917.75t.75 1.917v16q0 1.167-.75 1.917t-1.917.75H2.669q-1.167 0-1.917-.75t-.75-1.917v-16q0-1.167.75-1.917t1.917-.75h2.667V8.001q0-1.167.75-1.917t1.917-.75h2.667V2.667zm18.666 0h-16v4Q13.25 7.917 12 8H8v4q-.083 1.25-1.333 1.333h-4v16H8v-6.667q.083-1.25 1.333-1.333 1.25.083 1.333 1.333v6.667h5.333v-6.667q.083-1.25 1.333-1.333 1.25.083 1.333 1.333v6.667h5.333v-6.667q.083-1.25 1.333-1.333 1.25.083 1.333 1.333v6.667h5.333v-6.667q.083-1.25 1.333-1.333 1.25.083 1.333 1.333v6.667h5.333v-16h-4q-1.25-.083-1.333-1.333V8h-4q-1.25-.083-1.333-1.333v-4z"/></symbol></defs></svg>