<svg aria-hidden="true" style="position: absolute; width: 0; height: 0; overflow: hidden;" version="1.1" xmlns="http://www.w3.org/2000/svg" xmlns:xlink="http://www.w3.org/1999/xlink">
    <defs>
        <symbol id="ethernet-classic" viewBox="0 0 43 32">
            <path d="M10.667 2.667q0-1.167 0.75-1.917v0 0q0.75-0.75 1.917-0.75h16q1.167 0 1.917 0.75t0.75 1.917v2.667h2.667q1.167 0 1.917 0.75t0.75 1.917v2.667h2.667q1.167 0 1.917 0.75t0.75 1.917v16q0 1.167-0.75 1.917t-1.917 0.75h-37.333q-1.167 0-1.917-0.75t-0.75-1.917v-16q0-1.167 0.75-1.917t1.917-0.75h2.667v-2.667q0-1.167 0.75-1.917t1.917-0.75h2.667v-2.667zM29.333 2.667h-16v4q-0.083 1.25-1.333 1.333h-4v4q-0.083 1.25-1.333 1.333h-4v16h5.333v-6.667q0.083-1.25 1.333-1.333 1.25 0.083 1.333 1.333v6.667h5.333v-6.667q0.083-1.25 1.333-1.333 1.25 0.083 1.333 1.333v6.667h5.333v-6.667q0.083-1.25 1.333-1.333 1.25 0.083 1.333 1.333v6.667h5.333v-6.667q0.083-1.25 1.333-1.333 1.25 0.083 1.333 1.333v6.667h5.333v-16h-4q-1.25-0.083-1.333-1.333v-4h-4q-1.25-0.083-1.333-1.333v-4z"></path>
        </symbol>
    </defs>
</svg>
